<?xml version="1.0" encoding="utf-8"?>
<!-- Generator: Adobe Illustrator 26.0.3, SVG Export Plug-In . SVG Version: 6.00 Build 0)  -->
<svg version="1.1" id="Layer_1" xmlns="http://www.w3.org/2000/svg" xmlns:xlink="http://www.w3.org/1999/xlink" x="0px" y="0px"
	 viewBox="0 0 100 100" style="enable-background:new 0 0 100 100;" xml:space="preserve">
<style type="text/css">
	.st0{fill:none;}
	.st1{fill:#FFFFFF;stroke:#000000;stroke-width:3;stroke-miterlimit:10;}
</style>
<line class="st0" x1="6.37" y1="95" x2="95" y2="95"/>
<g>
	<path class="st1" d="M57.56,92.03H14.04V15.66c0-4.24,3.05-7.69,6.81-7.69h29.89c3.76,0,6.81,3.44,6.81,7.69V92.03z"/>
	<path class="st1" d="M85.96,92.03h-28.4V33.19h20.57c4.33,0,7.83,3.96,7.83,8.84V92.03z"/>
	<path class="st1" d="M29.42,33.19h-5.43c-1.57,0-2.84-1.44-2.84-3.2v-6.14c0-1.77,1.27-3.2,2.84-3.2h5.43
		c1.57,0,2.84,1.44,2.84,3.2v6.14C32.25,31.75,30.98,33.19,29.42,33.19z"/>
	<path class="st1" d="M29.42,54.65h-5.43c-1.57,0-2.84-1.44-2.84-3.2v-6.14c0-1.77,1.27-3.2,2.84-3.2h5.43
		c1.57,0,2.84,1.44,2.84,3.2v6.14C32.25,53.22,30.98,54.65,29.42,54.65z"/>
	<path class="st1" d="M47.96,54.65h-5.43c-1.57,0-2.84-1.44-2.84-3.2v-6.14c0-1.77,1.27-3.2,2.84-3.2h5.43
		c1.57,0,2.84,1.44,2.84,3.2v6.14C50.8,53.22,49.53,54.65,47.96,54.65z"/>
	<path class="st1" d="M74.47,54.65h-5.43c-1.57,0-2.84-1.44-2.84-3.2v-6.14c0-1.77,1.27-3.2,2.84-3.2h5.43
		c1.57,0,2.84,1.44,2.84,3.2v6.14C77.31,53.22,76.04,54.65,74.47,54.65z"/>
	<path class="st1" d="M74.47,75.15h-5.43c-1.57,0-2.84-1.44-2.84-3.2v-6.14c0-1.77,1.27-3.2,2.84-3.2h5.43
		c1.57,0,2.84,1.44,2.84,3.2v6.14C77.31,73.71,76.04,75.15,74.47,75.15z"/>
	<path class="st1" d="M47.96,33.19h-5.43c-1.57,0-2.84-1.44-2.84-3.2v-6.14c0-1.77,1.27-3.2,2.84-3.2h5.43
		c1.57,0,2.84,1.44,2.84,3.2v6.14C50.8,31.75,49.53,33.19,47.96,33.19z"/>
	<rect x="29.39" y="71.07" class="st1" width="12.82" height="20.95"/>
</g>
</svg>
