<?xml version="1.0" encoding="utf-8"?>
<!-- Generator: Adobe Illustrator 26.0.3, SVG Export Plug-In . SVG Version: 6.00 Build 0)  -->
<svg version="1.1" id="Layer_1" xmlns="http://www.w3.org/2000/svg" xmlns:xlink="http://www.w3.org/1999/xlink" x="0px" y="0px"
	 viewBox="0 0 100 100" style="enable-background:new 0 0 100 100;" xml:space="preserve">
<style type="text/css">
	.st0{fill:#FFFFFF;stroke:#1D1D1B;stroke-width:3;stroke-miterlimit:10;}
	.st1{fill:none;stroke:#1D1D1B;stroke-width:3;stroke-miterlimit:10;}
</style>
<g>
	<polygon class="st0" points="94.99,72.5 94.99,27.5 50,5 5,27.5 5,72.5 50,95 	"/>
	<line class="st1" x1="50.01" y1="50" x2="5" y2="27.5"/>
	<line class="st1" x1="72.51" y1="38.75" x2="27.5" y2="16.25"/>
	<line class="st1" x1="95" y1="27.5" x2="50.02" y2="50"/>
	<line class="st1" x1="71.17" y1="15.59" x2="27.5" y2="38.75"/>
	<line class="st1" x1="50.01" y1="95" x2="50.01" y2="50"/>
	<path class="st1" d="M50.02,26.83c0,0-9.96-7.37-1.34-11.93C48.68,14.9,59.41,16.46,50.02,26.83z"/>
	<path class="st1" d="M50.02,27.21c0,0-9.96,7.37-1.34,11.93C48.68,39.14,59.41,37.58,50.02,27.21z"/>
	<path class="st1" d="M48.93,26.4c0,0-8.51,8.63-13.78,1.16C35.16,27.56,36.96,18.27,48.93,26.4z"/>
	<path class="st1" d="M49.95,26.65c0,0,8.51,8.63,13.78,1.16C63.72,27.8,61.92,18.52,49.95,26.65z"/>
</g>
</svg>
